<svg id="レイヤー_1" xmlns="http://www.w3.org/2000/svg" viewBox="0 0 103 103"><g fill="#fff"><path d="M51.5 103.3C22.937 103.3-.301 80.063-.301 51.5S22.937-.3 51.5-.3s51.801 23.237 51.801 51.801c0 28.562-23.238 51.799-51.801 51.799zm0-100.766C24.5 2.534 2.534 24.5 2.534 51.5S24.5 100.466 51.5 100.466 100.466 78.5 100.466 51.5 78.5 2.534 51.5 2.534z"/><path d="M37.713 87.583a3.098 3.098 0 0 1-3.046-2.626l-.369-2.472a18.083 18.083 0 0 1-3.419-.853l-1.487 2.009c-.972 1.31-2.995 1.614-4.309.643l-3.594-2.662a3.084 3.084 0 0 1-.644-4.308l1.487-2.009a18.049 18.049 0 0 1-1.813-3.021l-2.473.368c-1.679.251-3.256-.945-3.501-2.592l-.66-4.423c-.121-.812.083-1.624.573-2.286s1.208-1.094 2.02-1.215l2.472-.368c.173-1.167.458-2.311.853-3.419l-2.008-1.487a3.086 3.086 0 0 1-.643-4.31l2.661-3.594c.972-1.311 2.994-1.613 4.309-.643l2.008 1.487c.945-.7 1.956-1.308 3.021-1.813l-.369-2.472a3.084 3.084 0 0 1 2.592-3.501l4.422-.66c1.696-.26 3.256.947 3.501 2.593l.369 2.472c1.167.173 2.311.458 3.419.853l1.487-2.009c.971-1.311 2.993-1.614 4.308-.643l3.594 2.662a3.053 3.053 0 0 1 1.211 2.021 3.062 3.062 0 0 1-.569 2.288l-1.487 2.008a17.982 17.982 0 0 1 1.813 3.021l2.472-.368c1.678-.258 3.255.945 3.501 2.592l.66 4.422a3.085 3.085 0 0 1-2.593 3.502l-2.472.368a18.064 18.064 0 0 1-.853 3.419l2.008 1.487a3.085 3.085 0 0 1 .643 4.309l-2.661 3.594a3.097 3.097 0 0 1-2.479 1.246 3.055 3.055 0 0 1-1.829-.603l-2.009-1.487a18.043 18.043 0 0 1-3.021 1.812l.369 2.473a3.085 3.085 0 0 1-2.593 3.502l-4.422.658a2.696 2.696 0 0 1-.45.035zm-7.328-9.082c.187 0 .376.037.557.114 1.5.642 3.088 1.037 4.718 1.176a1.419 1.419 0 0 1 1.282 1.203l.529 3.545c.02.131.139.21.242.21l.036-.003 4.424-.659c.13-.02.227-.15.207-.28l-.529-3.545a1.416 1.416 0 0 1 .875-1.524 15.267 15.267 0 0 0 4.169-2.502 1.415 1.415 0 0 1 1.756-.055l2.879 2.132c.072.053.188.159.343-.052l2.662-3.595a.253.253 0 0 0-.052-.344l-2.878-2.132a1.417 1.417 0 0 1-.46-1.696 15.256 15.256 0 0 0 1.177-4.717 1.417 1.417 0 0 1 1.203-1.281l3.544-.529c.13-.02.227-.15.208-.28l-.66-4.422a.252.252 0 0 0-.243-.21l-3.582.531a1.407 1.407 0 0 1-1.524-.874 15.28 15.28 0 0 0-2.503-4.17 1.417 1.417 0 0 1-.055-1.757l2.132-2.879a.239.239 0 0 0 .044-.182.238.238 0 0 0-.095-.161l-3.594-2.662c-.072-.053-.19-.158-.344.052l-2.132 2.88a1.418 1.418 0 0 1-1.696.459 15.317 15.317 0 0 0-4.719-1.177 1.418 1.418 0 0 1-1.281-1.203l-.529-3.544a.25.25 0 0 0-.244-.21l-4.458.662a.254.254 0 0 0-.207.28l.529 3.544a1.417 1.417 0 0 1-.874 1.524 15.3 15.3 0 0 0-4.17 2.503 1.416 1.416 0 0 1-1.756.055l-2.879-2.132c-.071-.053-.19-.155-.344.052l-2.66 3.594a.25.25 0 0 0 .052.345l2.879 2.132c.528.391.718 1.093.459 1.696a15.261 15.261 0 0 0-1.176 4.717 1.417 1.417 0 0 1-1.203 1.281l-3.545.529a.243.243 0 0 0-.16.099.237.237 0 0 0-.047.181l.66 4.423c.02.131.139.21.242.21l3.582-.531a1.408 1.408 0 0 1 1.524.874 15.287 15.287 0 0 0 2.502 4.17c.423.502.446 1.229.055 1.757l-2.132 2.879c-.048.065-.05.135-.043.182s.029.113.094.161l3.594 2.662c.072.052.189.156.344-.052l2.131-2.88a1.422 1.422 0 0 1 1.14-.574z"/><path d="M69.008 58.916a2.929 2.929 0 0 1-2.641-2.732l-.121-2.132a16.32 16.32 0 0 1-2.81-.98l-1.421 1.593c-1.025 1.151-2.954 1.263-4.108.234l-2.994-2.672a2.885 2.885 0 0 1-.966-2.005 2.882 2.882 0 0 1 .732-2.102l1.421-1.593a16.404 16.404 0 0 1-1.292-2.68l-2.133.121c-1.613.099-2.981-1.17-3.07-2.739l-.228-4.006a2.913 2.913 0 0 1 2.74-3.07l2.132-.122c.241-.966.568-1.905.98-2.81L53.636 29.8a2.887 2.887 0 0 1-.966-2.005 2.887 2.887 0 0 1 .733-2.102l2.671-2.994c1.028-1.151 2.956-1.263 4.109-.232l1.592 1.419a16.464 16.464 0 0 1 2.681-1.293l-.121-2.132a2.89 2.89 0 0 1 .735-2.101 2.888 2.888 0 0 1 2.005-.969l4.006-.228a2.93 2.93 0 0 1 3.07 2.739l.121 2.131c.965.241 1.905.569 2.81.981l1.421-1.593c1.024-1.15 2.955-1.265 4.108-.233l2.994 2.671c.579.516.922 1.228.966 2.005a2.882 2.882 0 0 1-.732 2.102l-1.421 1.593c.511.852.943 1.747 1.293 2.68l2.132-.121c1.614-.091 2.981 1.171 3.07 2.739l.228 4.006a2.89 2.89 0 0 1-.735 2.101 2.888 2.888 0 0 1-2.005.969l-2.132.122a16.41 16.41 0 0 1-.98 2.81l1.593 1.421c.579.516.922 1.228.966 2.005a2.881 2.881 0 0 1-.733 2.102l-2.671 2.994a2.923 2.923 0 0 1-2.439.959 2.881 2.881 0 0 1-1.669-.725l-1.593-1.42c-.852.51-1.748.943-2.681 1.293l.122 2.132a2.913 2.913 0 0 1-2.74 3.07l-4.006.228a3.075 3.075 0 0 1-.43-.008zm-5.78-9.006c.187.017.372.071.544.165a13.597 13.597 0 0 0 4.077 1.422 1.417 1.417 0 0 1 1.166 1.315l.183 3.211.079.071 4.006-.228c.037-.002.073-.041.071-.08l-.183-3.211a1.418 1.418 0 0 1 1.009-1.439 13.597 13.597 0 0 0 3.89-1.876 1.416 1.416 0 0 1 1.754.105l2.399 2.14.106-.007L85 48.505c.024-.026.021-.081-.006-.104l-2.399-2.141a1.417 1.417 0 0 1-.304-1.731 13.58 13.58 0 0 0 1.422-4.077 1.416 1.416 0 0 1 1.315-1.165l3.211-.183c.036-.003.073-.044.071-.08l-.228-4.006-.079-.071-3.211.183a1.413 1.413 0 0 1-1.439-1.009 13.563 13.563 0 0 0-1.875-3.889 1.417 1.417 0 0 1 .105-1.755l2.14-2.399c.023-.026.02-.082-.006-.105L80.722 23.3a4.036 4.036 0 0 1-.106.007l-2.14 2.398a1.421 1.421 0 0 1-1.731.304 13.558 13.558 0 0 0-4.076-1.422 1.418 1.418 0 0 1-1.167-1.315l-.183-3.211-.16-1.486.081 1.415-4.006.228c-.036.003-.073.044-.071.08l.183 3.211a1.418 1.418 0 0 1-1.009 1.439 13.591 13.591 0 0 0-3.889 1.875 1.415 1.415 0 0 1-1.755-.105l-2.399-2.14-1.163-.938 1.058.944-2.671 2.994c-.024.027-.021.082.006.105l2.399 2.141c.49.437.616 1.154.304 1.731a13.518 13.518 0 0 0-1.421 4.076 1.416 1.416 0 0 1-1.315 1.166l-3.211.183c-.038.002-.073.041-.071.08l.228 4.006.079.071 3.211-.183a1.419 1.419 0 0 1 1.439 1.009 13.587 13.587 0 0 0 1.875 3.889 1.42 1.42 0 0 1-.105 1.755l-2.14 2.399c-.023.026-.02.082.006.105l2.994 2.672.106-.007 2.14-2.399a1.419 1.419 0 0 1 1.186-.467zM36.977 71.557c-3.486 0-6.503-2.604-7.018-6.056-.28-1.876.188-3.749 1.316-5.273s2.784-2.519 4.66-2.798a7.046 7.046 0 0 1 1.054-.079c3.486 0 6.503 2.604 7.018 6.056.28 1.876-.188 3.749-1.317 5.273s-2.784 2.519-4.66 2.798a7.023 7.023 0 0 1-1.053.079zm.013-11.371a4.244 4.244 0 0 0-3.436 1.729 4.242 4.242 0 0 0-.791 3.169c.34 2.283 2.503 3.937 4.85 3.592a4.244 4.244 0 0 0 2.8-1.682 4.242 4.242 0 0 0 .791-3.169c-.309-2.075-2.121-3.639-4.214-3.639z"/><path d="M69.765 43.382c-2.621-.24-4.711-2.405-4.861-5.036a5.323 5.323 0 0 1 1.353-3.874 5.324 5.324 0 0 1 3.696-1.783c2.977-.17 5.494 2.155 5.659 5.048a5.324 5.324 0 0 1-1.353 3.875 5.322 5.322 0 0 1-3.696 1.783c-.27.016-.536.011-.798-.013zm.728-7.857a2.513 2.513 0 0 0-2.121.834 2.51 2.51 0 0 0-.638 1.826 2.55 2.55 0 0 0 2.667 2.381 2.516 2.516 0 0 0 1.743-.841c.45-.504.676-1.153.637-1.827a2.539 2.539 0 0 0-2.288-2.373z"/></g></svg>