<svg id="レイヤー_1" xmlns="http://www.w3.org/2000/svg" viewBox="0 0 152 108"><path d="M96.574 78.728v-5.254h6.085v-4.362H56.845v-6.635a8.854 8.854 0 1 0-17.708 0c0 .038.005.075.006.114a8.858 8.858 0 0 0-1.351-.114 8.854 8.854 0 1 0 0 17.708c.461 0 .91-.046 1.351-.114 0 .038-.006.075-.006.114a8.854 8.854 0 1 0 17.708 0v-6.711h30.068v5.254h-5.531v10.311l10.694-3.161 10.694 3.161V78.728h-6.196zm-59.865-4.273a3.123 3.123 0 1 1 0-6.245 3.123 3.123 0 0 1 0 6.245z" fill="#c8c8c8"/><path d="M102.772 90.54c-.143 0-.286-.021-.425-.062l-10.269-3.035-10.27 3.035a1.499 1.499 0 0 1-1.925-1.438V78.728a1.5 1.5 0 0 1 1.5-1.5h4.031v-2.253H58.345v5.21c0 5.71-4.645 10.354-10.354 10.354-5.2 0-9.517-3.854-10.246-8.854-5.688-.025-10.308-4.66-10.308-10.354s4.62-10.328 10.308-10.354c.729-5.001 5.045-8.854 10.246-8.854 5.709 0 10.354 4.645 10.354 10.354v5.135h44.314a1.5 1.5 0 0 1 1.5 1.5v4.362a1.5 1.5 0 0 1-1.5 1.5h-4.584v2.253h4.697a1.5 1.5 0 0 1 1.5 1.5V89.04a1.497 1.497 0 0 1-1.5 1.5zM39.143 78.572a1.503 1.503 0 0 1 1.5 1.519c0 .03-.005.115-.007.146.001 4.003 3.3 7.302 7.355 7.302 4.055 0 7.354-3.299 7.354-7.354v-6.71a1.5 1.5 0 0 1 1.5-1.5h30.069a1.5 1.5 0 0 1 1.5 1.5v5.253a1.5 1.5 0 0 1-1.5 1.5h-4.031v6.804l8.77-2.592c.277-.082.573-.082.851 0l8.769 2.592v-6.804h-4.697a1.5 1.5 0 0 1-1.5-1.5v-5.253a1.5 1.5 0 0 1 1.5-1.5h4.584v-1.362H56.845a1.5 1.5 0 0 1-1.5-1.5v-6.635c0-4.056-3.299-7.354-7.354-7.354s-7.354 3.299-7.354 7.354l.006.094c.005.44-.183.861-.515 1.151s-.776.421-1.211.351a7.453 7.453 0 0 0-1.125-.096c-4.055 0-7.354 3.299-7.354 7.354s3.299 7.354 7.354 7.354c.337 0 .695-.03 1.125-.096.075-.012.151-.018.226-.018zm-2.434-2.617c-2.549 0-4.623-2.074-4.623-4.623s2.074-4.623 4.623-4.623 4.623 2.074 4.623 4.623-2.073 4.623-4.623 4.623zm0-6.247c-.895 0-1.623.729-1.623 1.623s.728 1.623 1.623 1.623 1.623-.729 1.623-1.623-.728-1.623-1.623-1.623z" fill="#040000"/><path fill="#fff" d="M64.093 18.961h58.968v13.036H64.093z"/><path d="M123.062 33.497H64.093a1.5 1.5 0 0 1-1.5-1.5V18.96a1.5 1.5 0 0 1 1.5-1.5h58.969a1.5 1.5 0 0 1 1.5 1.5v13.036a1.5 1.5 0 0 1-1.5 1.501zm-57.469-3h55.969V20.46H65.593v10.037z" fill="#d65540"/><path fill="#fff" d="M64.093 40.588h58.968v13.036H64.093z"/><path d="M123.062 55.125H64.093a1.5 1.5 0 0 1-1.5-1.5V40.588a1.5 1.5 0 0 1 1.5-1.5h58.969a1.5 1.5 0 0 1 1.5 1.5v13.036a1.5 1.5 0 0 1-1.5 1.501zm-57.469-3h55.969V42.088H65.593v10.037z" fill="#d65540"/><g fill="#040000"><path d="M69.471 27.285l-.267.808c-.157.463-.228.667-.675.667-.235 0-.761-.102-.761-.534 0-.157.047-.282.141-.542l1.68-4.538c.18-.487.345-.95 1.114-.95.754 0 .935.48 1.108.95l1.672 4.538c.094.259.141.393.141.55 0 .401-.479.526-.769.526-.44 0-.511-.204-.667-.667l-.275-.808h-2.442zm2.066-1.115l-.84-2.513-.84 2.513h1.68zM76.189 28.141c0 .408-.196.62-.659.62-.408 0-.675-.141-.675-.62v-4.727c0-.4 0-1.092 1.076-1.092h.754c.416 0 1.044.008 1.594.44.479.377.715.965.715 1.593 0 .353-.086 1.084-.707 1.539-.494.369-.997.416-1.61.416h-.487v1.831zm.417-3.055c.471 0 1.052 0 1.052-.754 0-.785-.542-.785-1.052-.785h-.173c-.18 0-.244.047-.244.243v1.295h.417zM80.456 22.825c0-.471.259-.628.667-.628.338 0 .675.086.675.628v5.316c0 .463-.251.62-.66.62-.338 0-.683-.086-.683-.62v-5.316z"/></g><path d="M71.157 49.333a2.454 2.454 0 0 1-2.447-2.447 2.454 2.454 0 0 1 2.447-2.447 2.454 2.454 0 0 1 2.447 2.447 2.454 2.454 0 0 1-2.447 2.447zM77.855 49.333a2.454 2.454 0 0 1-2.447-2.447 2.454 2.454 0 0 1 2.447-2.447 2.454 2.454 0 0 1 2.447 2.447 2.453 2.453 0 0 1-2.447 2.447zM84.553 49.333a2.454 2.454 0 0 1-2.447-2.447 2.454 2.454 0 0 1 2.447-2.447A2.454 2.454 0 0 1 87 46.886a2.453 2.453 0 0 1-2.447 2.447zM91.252 49.333a2.454 2.454 0 0 1-2.447-2.447 2.454 2.454 0 0 1 2.447-2.447 2.454 2.454 0 0 1 2.447 2.447 2.454 2.454 0 0 1-2.447 2.447zM97.95 49.333a2.454 2.454 0 0 1-2.447-2.447 2.454 2.454 0 0 1 2.447-2.447 2.454 2.454 0 0 1 2.447 2.447 2.454 2.454 0 0 1-2.447 2.447zM104.648 49.333a2.454 2.454 0 0 1-2.447-2.447 2.454 2.454 0 0 1 2.447-2.447 2.454 2.454 0 0 1 2.447 2.447 2.454 2.454 0 0 1-2.447 2.447z" fill="#040000"/><g><path d="M122.922 72.575c0-2.328-1.905-4.233-4.233-4.233s-4.233 1.905-4.233 4.233a4.245 4.245 0 0 0 2.534 3.872l-2.534 12.242h8.466l-2.534-12.242a4.245 4.245 0 0 0 2.534-3.872z" fill="#040000"/><path d="M122.922 90.189h-8.466a1.5 1.5 0 0 1-1.469-1.804l2.316-11.191a5.735 5.735 0 0 1-2.347-4.619c0-3.161 2.572-5.732 5.733-5.732s5.733 2.571 5.733 5.732a5.735 5.735 0 0 1-2.347 4.619l2.316 11.191a1.502 1.502 0 0 1-1.469 1.804zm-6.623-3h4.781l-2.16-10.438a1.5 1.5 0 0 1 .862-1.676 2.74 2.74 0 0 0 1.641-2.5c0-1.507-1.226-2.732-2.733-2.732s-2.733 1.226-2.733 2.732a2.74 2.74 0 0 0 1.641 2.5 1.5 1.5 0 0 1 .862 1.676l-2.161 10.438z" fill="#060001"/></g></svg>