<svg id="レイヤー_1" xmlns="http://www.w3.org/2000/svg" viewBox="0 0 103 103"><g fill="#fff"><path d="M51.5 102.917C23.148 102.917.083 79.852.083 51.5S23.148.083 51.5.083s51.417 23.065 51.417 51.417-23.065 51.417-51.417 51.417zm0-100C24.711 2.917 2.917 24.711 2.917 51.5s21.794 48.583 48.583 48.583 48.583-21.794 48.583-48.583S78.289 2.917 51.5 2.917z"/><path d="M68.604 85.254a1.41 1.41 0 0 1-1.002-.415l-4.909-4.908a1.417 1.417 0 0 1 0-2.004l8.437-8.437-3.449-3.449v1.021c0 .783-.635 1.417-1.417 1.417H36.737a1.416 1.416 0 0 1-1.417-1.417v-1.021l-3.449 3.449 8.437 8.437a1.416 1.416 0 0 1-.001 2.004l-4.909 4.908a1.414 1.414 0 0 1-2.004 0L19.047 70.492a1.416 1.416 0 0 1 0-2.004L35.32 52.215V47.76c0-.783.635-1.417 1.417-1.417h29.526c.783 0 1.417.634 1.417 1.417v4.455l16.273 16.273a1.418 1.418 0 0 1 0 2.004L69.607 84.839c-.277.277-.64.415-1.003.415zM22.053 69.49l12.342 12.343 2.905-2.904-8.437-8.437a1.418 1.418 0 0 1 0-2.004l6.871-6.871a1.419 1.419 0 0 1 2.42 1.002v3.026h26.691v-3.026a1.416 1.416 0 1 1 2.42-1.002l6.871 6.871a1.416 1.416 0 0 1-.001 2.004L65.7 78.929l2.905 2.904L80.947 69.49 65.261 53.804a1.417 1.417 0 0 1-.416-1.002v-3.625H38.154v3.625c0 .376-.149.736-.416 1.002L22.053 69.49z"/><path d="M54.874 49.031h-6.748a1.416 1.416 0 0 1-1.417-1.417V15.03c0-.783.635-1.417 1.417-1.417h6.748c.783 0 1.417.634 1.417 1.417v32.584c0 .783-.635 1.417-1.417 1.417zm-5.331-2.834h3.913v-29.75h-3.913v29.75zM51.531 62.563a4.983 4.983 0 0 1-4.978-4.977c0-2.745 2.233-4.978 4.978-4.978s4.978 2.232 4.978 4.978a4.983 4.983 0 0 1-4.978 4.977zm0-7.12c-1.182 0-2.143.962-2.143 2.144s.961 2.143 2.143 2.143 2.143-.961 2.143-2.143-.961-2.144-2.143-2.144z"/></g></svg>