<svg xmlns="http://www.w3.org/2000/svg" viewBox="0 0 40 40"><g id="レイヤー_3"><path id="Blue_21_" d="M37.792 39.837A2.209 2.209 0 0 0 40 37.629V2.044a2.209 2.209 0 0 0-2.208-2.208H2.208C.988-.164 0 .825 0 2.044v35.585c0 1.219.988 2.208 2.208 2.208h35.584z" fill="#969696"/><path id="f_7_" d="M27.599 39.837v-15.49h5.2l.778-6.037h-5.978v-3.854c0-1.748.485-2.939 2.992-2.939l3.197-.001v-5.4c-.553-.073-2.451-.238-4.658-.238-4.609 0-7.764 2.813-7.764 7.98v4.452h-5.213v6.037h5.213v15.49h6.233z" fill="#fff"/></g></svg>