<svg id="レイヤー_1" xmlns="http://www.w3.org/2000/svg" viewBox="0 0 103 103"><g fill="#fff"><path d="M51.5 0C23.103 0 0 23.103 0 51.5S23.103 103 51.5 103 103 79.897 103 51.5 79.897 0 51.5 0zm0 100C24.757 100 3 78.243 3 51.5S24.757 3 51.5 3 100 24.757 100 51.5 78.243 100 51.5 100z"/><path d="M81.266 32.451a1.484 1.484 0 0 0-.147-.357c-.018-.031-.045-.057-.065-.087a1.49 1.49 0 0 0-.167-.221c-.038-.038-.086-.066-.127-.101-.057-.047-.109-.099-.174-.137l-.006-.002-.007-.005L56.82 17.676a1.502 1.502 0 0 0-1.51-.001L31.71 31.4a1.501 1.501 0 0 0-1.077 1.437v17.976c-7.885.587-14.125 7.174-14.125 15.207 0 8.416 6.848 15.264 15.264 15.264h39.141l-4.995 4.995A1.5 1.5 0 1 0 68.04 88.4l7.555-7.556a1.5 1.5 0 0 0 0-2.122l-7.555-7.555a1.5 1.5 0 1 0-2.121 2.121l4.995 4.994H31.772c-6.763 0-12.264-5.501-12.264-12.264 0-6.378 4.895-11.63 11.125-12.207v4.709c0 .552.303 1.059.789 1.32l23.842 12.842c.067.036.138.056.208.081.041.015.08.036.123.048.125.033.252.051.38.051s.255-.018.38-.051c.043-.011.082-.033.124-.048.07-.025.141-.045.207-.081L80.528 59.84a1.5 1.5 0 0 0 .789-1.32V32.837c0-.131-.017-.26-.05-.383l-.001-.003zM56.062 20.708l20.689 12.076-4.428 2.385L51.6 23.303l4.462-2.595zm-7.455 4.336l20.599 11.805-4.683 2.522-20.355-11.69 4.439-2.637zm22.146 14.587v7.481l-4.645 2.58.042-7.447 4.603-2.614zM54.475 68.852L33.633 57.626V35.349l20.842 11.226v22.277zm1.539-24.898l-12.621-6.756-8.144-4.386 5.871-3.414 20.297 11.646-5.403 2.91zm22.302 13.672L57.475 68.852V46.65l5.667-3.071-.048 8.662a1.501 1.501 0 0 0 2.229 1.321l7.659-4.255c.476-.265.771-.767.771-1.312V37.829l4.564-2.473v22.27z"/></g></svg>