<svg xmlns="http://www.w3.org/2000/svg" viewBox="0 0 40 40"><g id="レイヤー_5"><path id="Blue_23_" d="M37.792 40A2.208 2.208 0 0 0 40 37.792V2.208C40 .988 39.011 0 37.792 0H2.208C.988 0 0 .988 0 2.208v35.585C0 39.012.988 40 2.208 40h35.584z" fill="#0065a1"/><g fill="#fff"><path d="M6.105 15.183h5.96v19.159h-5.96V15.183zm2.982-9.524a3.453 3.453 0 1 1-.005 6.907 3.453 3.453 0 0 1 .005-6.907M15.801 15.183h5.708v2.619h.082c.794-1.506 2.737-3.095 5.634-3.095 6.029 0 7.143 3.967 7.143 9.127v10.507h-5.954v-9.317c0-2.222-.038-5.08-3.094-5.08-3.098 0-3.571 2.422-3.571 4.921v9.476h-5.947V15.183z"/></g></g></svg>