<svg id="レイヤー_1" xmlns="http://www.w3.org/2000/svg" viewBox="0 0 40 40"><path id="Blue_22_" d="M37.792 39.837A2.209 2.209 0 0 0 40 37.629V2.044a2.209 2.209 0 0 0-2.208-2.208H2.208C.988-.164 0 .825 0 2.044v35.585c0 1.219.988 2.208 2.208 2.208h35.584z" fill="#969696"/><g fill="#fff"><path d="M6.105 14.814h5.96v19.159h-5.96V14.814zM9.087 5.29a3.453 3.453 0 1 1-.005 6.907 3.453 3.453 0 0 1 .005-6.907M15.801 14.814h5.708v2.619h.082c.794-1.506 2.737-3.095 5.634-3.095 6.029 0 7.143 3.967 7.143 9.127v10.507h-5.954v-9.317c0-2.222-.038-5.08-3.094-5.08-3.098 0-3.571 2.422-3.571 4.921v9.476h-5.947V14.814z"/></g></svg>