<svg id="Layer_1" data-name="Layer 1" xmlns="http://www.w3.org/2000/svg" viewBox="0 0 531.42 157.4"><defs><style>.cls-1{fill:#df4d38}.cls-2{fill:#fff;fill-rule:evenodd}.cls-3{font-size:63.35px;fill:#878787;font-family:CenturyGothic-Bold,Century Gothic;font-weight:700;letter-spacing:-.03em}.cls-4,.cls-6,.cls-7,.cls-8,.cls-9{font-size:57.59px}.cls-4,.cls-5{letter-spacing:-.03em}.cls-6{letter-spacing:.02em}.cls-7{letter-spacing:-.07em}.cls-8{letter-spacing:-.05em}.cls-9{letter-spacing:-.02em}</style></defs><title>logo_nowdiscover</title><rect class="cls-1" x="19.84" y="20.46" width="117.73" height="117.4" rx="17.22" ry="17.22"/><g id="LOGO"><path class="cls-2" d="M72.61 56.85c2.11 0 3.85 2.11 3.85 4.67v36c0 2.56-1.74 4.67-3.85 4.67h-5.72c-2.11 0-3.85-2.1-3.85-4.67v-36c0-2.57 1.73-4.67 3.85-4.67zM54.65 68.4l5.84 7.8v13.31l-.16-.22v1.01l-5.85-7.75V69.19l.02-.92.15.13zM95.66 57.14l24.15 17.18c3.2 2.27 3.13 8.12-.12 10.12l-24 17.35c-2.27 1.64-8.07 1.23-8.07-1.62V60.23c0-2.85 5.76-4.73 8.05-3.09zM42.45 56.89h5.72c2.11 0 3.83 2.11 3.83 4.67v36c0 2.56-1.74 4.67-3.85 4.67h-5.7c-2.11 0-3.85-2.1-3.85-4.67v-36c0-2.56 1.73-4.67 3.85-4.67z"/></g><text class="cls-3" transform="translate(156 104.21)">N<tspan class="cls-4" x="45.21" y="0">ow</tspan><tspan class="cls-5" x="124.34" y="0">D</tspan><tspan class="cls-6" x="167.05" y="0">i</tspan><tspan class="cls-4" x="181.89" y="0">s</tspan><tspan class="cls-7" x="205.33" y="0">co</tspan><tspan class="cls-8" x="271.34" y="0">v</tspan><tspan class="cls-9" x="300.83" y="0">er</tspan></text></svg>