<svg id="レイヤー_1" xmlns="http://www.w3.org/2000/svg" viewBox="0 0 103 103"><g fill="#fff"><path d="M51.5 0C23.103 0 0 23.103 0 51.5S23.103 103 51.5 103 103 79.897 103 51.5 79.897 0 51.5 0zm0 100C24.757 100 3 78.243 3 51.5S24.757 3 51.5 3 100 24.757 100 51.5 78.243 100 51.5 100z"/><path d="M53.5 49.599c-.678-.202-1.264-.376-1.738-.557-3.839-1.463-7.702-4.842-7.951-6.954-.187-1.585.021-4.856 1.983-7.063 1.385-1.558 3.457-2.348 6.16-2.348 7.642 0 8.84 4.954 8.893 5.192a1.497 1.497 0 0 0 1.762 1.165 1.5 1.5 0 0 0 1.178-1.764c-.489-2.459-3.279-6.969-10.332-7.534V21.8a1.5 1.5 0 0 0-3 0v7.953c-2.888.278-5.209 1.372-6.902 3.278-2.495 2.807-3.025 6.822-2.721 9.407.479 4.08 6.057 7.957 9.862 9.406.579.221 1.245.419 1.95.63 4.216 1.255 9.989 2.975 9.989 12.51 0 5.542-4.409 8.299-8.186 8.976-5.141.917-11.505-1.381-14.174-8.588a1.5 1.5 0 1 0-2.813 1.043c2.525 6.818 7.795 10.035 12.993 10.629v9.425a1.5 1.5 0 0 0 3 0v-9.368a15.17 15.17 0 0 0 1.522-.188c6.374-1.143 10.656-5.937 10.656-11.929.002-11.771-7.891-14.122-12.131-15.385z"/></g></svg>