<svg xmlns="http://www.w3.org/2000/svg" viewBox="0 0 40 40"><g id="レイヤー_4"><path id="Blue_19_" d="M37.792 40A2.208 2.208 0 0 0 40 37.792V2.208C40 .988 39.011 0 37.792 0H2.208C.988 0 0 .988 0 2.208v35.585C0 39.012.988 40 2.208 40h35.584z" fill="#969696"/><g fill="#ece6eb"><path d="M29.999 12.381H10.001L20 20.52z"/><path d="M20.603 22.494a.955.955 0 0 1-1.206 0L8.361 13.513v14.106h23.278V13.513l-11.036 8.981z"/></g><g fill="#fff"><path d="M29.999 12.381H10.001L20 20.52z"/><path d="M20.603 22.494a.955.955 0 0 1-1.206 0L8.361 13.513v14.106h23.278V13.513l-11.036 8.981z"/></g></g></svg>