<svg id="レイヤー_1" xmlns="http://www.w3.org/2000/svg" viewBox="0 0 103 103"><g fill="#fff"><path d="M51.5 102.878C23.17 102.878.122 79.83.122 51.5S23.17.122 51.5.122 102.878 23.17 102.878 51.5 79.83 102.878 51.5 102.878zm0-99.922C24.733 2.956 2.956 24.733 2.956 51.5s21.777 48.544 48.544 48.544 48.544-21.777 48.544-48.544S78.267 2.956 51.5 2.956z"/><path d="M51.899 86.783a5.965 5.965 0 0 1-5.959-5.959c0-1.551.599-3.014 1.647-4.11l-5.048-8.743H32.022a5.92 5.92 0 0 1-5.745 4.402c-3.286 0-5.959-2.673-5.959-5.959s2.673-5.96 5.959-5.96c.584 0 1.168.091 1.731.267l5.173-8.96-5.193-8.994a5.808 5.808 0 0 1-1.711.261c-3.286 0-5.959-2.674-5.959-5.96s2.673-5.959 5.959-5.959c2.733 0 5.074 1.896 5.753 4.443h10.51l5.247-9.088a5.95 5.95 0 0 1-1.847-4.288c0-3.286 2.673-5.96 5.959-5.96s5.959 2.674 5.959 5.96a5.95 5.95 0 0 1-1.847 4.288l5.247 9.088h9.711c.679-2.548 3.02-4.443 5.753-4.443 3.286 0 5.959 2.673 5.959 5.959s-2.673 5.96-5.959 5.96c-.339 0-.677-.029-1.012-.089l-5.094 8.822 5.072 8.785a5.768 5.768 0 0 1 1.033-.092c3.286 0 5.959 2.674 5.959 5.96s-2.673 5.959-5.959 5.959a5.921 5.921 0 0 1-5.745-4.402h-9.719l-5.049 8.743a5.936 5.936 0 0 1 1.648 4.11 5.962 5.962 0 0 1-5.957 5.959zM30.806 65.137h12.553c.507 0 .975.27 1.228.708l6.049 10.478c.375.65.179 1.479-.448 1.893a3.12 3.12 0 0 0-1.412 2.609c0 1.723 1.402 3.125 3.125 3.125s3.125-1.402 3.125-3.125a3.118 3.118 0 0 0-1.413-2.609 1.418 1.418 0 0 1-.448-1.893l6.05-10.478a1.419 1.419 0 0 1 1.228-.708h11.754c.766 0 1.393.607 1.417 1.373a3.106 3.106 0 0 0 3.111 3.029 3.129 3.129 0 0 0 3.125-3.125 3.129 3.129 0 0 0-3.125-3.126c-.397 0-.793.079-1.175.234a1.415 1.415 0 0 1-1.762-.604L67.753 52.47a1.42 1.42 0 0 1 0-1.418l6.053-10.483a1.416 1.416 0 0 1 1.755-.606c.383.153.773.231 1.162.231a3.129 3.129 0 0 0 3.125-3.126 3.129 3.129 0 0 0-3.125-3.125 3.1 3.1 0 0 0-3.115 3.058 1.417 1.417 0 0 1-1.417 1.386H60.44c-.506 0-.975-.27-1.228-.708l-6.279-10.876a1.418 1.418 0 0 1 .518-1.936c.985-.57 1.573-1.575 1.573-2.69 0-1.724-1.402-3.126-3.125-3.126s-3.125 1.402-3.125 3.126c0 1.115.588 2.12 1.573 2.69a1.42 1.42 0 0 1 .518 1.936l-6.279 10.876a1.418 1.418 0 0 1-1.228.708H30.81c-.771 0-1.4-.615-1.417-1.386a3.1 3.1 0 0 0-3.115-3.058 3.129 3.129 0 0 0-3.125 3.125 3.129 3.129 0 0 0 3.125 3.126c.547 0 1.079-.151 1.582-.45a1.418 1.418 0 0 1 1.951.51l6.235 10.799a1.42 1.42 0 0 1 0 1.418l-6.218 10.77a1.418 1.418 0 0 1-1.957.506 3.066 3.066 0 0 0-1.594-.457 3.129 3.129 0 0 0-3.125 3.126 3.129 3.129 0 0 0 3.125 3.125 3.105 3.105 0 0 0 3.111-3.029 1.419 1.419 0 0 1 1.418-1.375z"/><path d="M51.5 63.175c-6.438 0-11.676-5.237-11.676-11.675 0-6.438 5.237-11.676 11.676-11.676S63.176 45.062 63.176 51.5 57.938 63.175 51.5 63.175zm0-20.517c-4.875 0-8.842 3.967-8.842 8.842s3.967 8.841 8.842 8.841 8.842-3.966 8.842-8.841-3.967-8.842-8.842-8.842z"/></g></svg>