<svg id="レイヤー_1" xmlns="http://www.w3.org/2000/svg" viewBox="0 0 152 108"><path d="M45.152 75.911c0 1.1.9 2 2 2h58.107c1.1 0 2-.9 2-2V36.674c0-1.1-.9-2-2-2H47.152c-1.1 0-2 .9-2 2v39.237z" fill="#e6e6e6"/><path d="M105.26 79.411H47.152c-1.93 0-3.5-1.57-3.5-3.5V36.674c0-1.93 1.57-3.5 3.5-3.5h58.107c1.93 0 3.5 1.57 3.5 3.5V75.91a3.504 3.504 0 0 1-3.499 3.501zM47.152 36.174c-.271 0-.5.229-.5.5V75.91c0 .271.229.5.5.5h58.107c.271 0 .5-.229.5-.5V36.674c0-.271-.229-.5-.5-.5H47.152z" fill="#e6e6e6"/><path fill="#c8c8c8" d="M45.152 34.674h62.292v7.487H45.152z"/><path d="M64.547 80.084c2.195 0 3.975-1.78 3.975-3.975s-1.78-3.828-3.975-3.828c-.326 0-.326-.029-.943-.029l-13.87-.07c2.093-4.297 3.437-6.276 3.838-8.523.935-5.235-1.133-7.1-2.828-8.309-1.129-.806-2.299-.462-2.694 1.194s-8.428 16.148-8.428 16.148l-9.756 5.551v22.637l6.537 3.054h22.068a3.975 3.975 0 0 0 3.975-3.975c0-1.809-1.623-3.975-1.414-3.975a3.975 3.975 0 0 0 3.975-3.975c0-2.022-2.642-3.975-2.218-3.975 2.195 0 3.975-1.78 3.975-3.975s-2.866-3.975-2.217-3.975z" fill="#fff"/><path d="M58.472 105.433H36.404a1.5 1.5 0 0 1-.635-.141l-6.537-3.054a1.5 1.5 0 0 1-.865-1.359V78.243c0-.539.29-1.037.758-1.304l9.39-5.344c3.779-6.829 7.787-14.369 8.08-15.411.483-2.025 1.872-2.752 3.009-2.752.678 0 1.374.241 2.012.696 2.273 1.621 4.458 4.053 3.433 9.794-.323 1.809-1.122 3.352-2.332 5.688-.177.342-.364.701-.56 1.084l11.455.058c.405 0 .579.012.725.021.062.004.117.008.21.008 3.07 0 5.475 2.341 5.475 5.328a5.483 5.483 0 0 1-2.919 4.841c.61.825 1.162 1.881 1.162 3.109a5.48 5.48 0 0 1-2.914 4.838c.606.849 1.157 1.919 1.157 3.111a5.482 5.482 0 0 1-3.307 5.028c.384.844.746 1.886.746 2.922a5.481 5.481 0 0 1-5.475 5.475zm-21.735-3h21.735a2.477 2.477 0 0 0 2.475-2.475c0-.856-.669-2.096-.991-2.69-.322-.597-.687-1.271-.226-2.045a1.532 1.532 0 0 1 1.304-.739 2.478 2.478 0 0 0 2.475-2.476c0-.788-.992-1.887-1.468-2.415-.458-.507-1.085-1.202-.664-2.15a1.579 1.579 0 0 1 1.414-.909 2.478 2.478 0 0 0 2.475-2.475c0-.81-.938-1.791-1.442-2.319-.493-.517-1.169-1.224-.747-2.212.236-.552.871-.944 1.471-.944a2.477 2.477 0 0 0 2.475-2.475c0-1.327-1.064-2.328-2.475-2.328-.181 0-.285-.007-.406-.015a7.141 7.141 0 0 0-.537-.015l-13.877-.07a1.5 1.5 0 0 1-1.341-2.157c.623-1.279 1.181-2.355 1.667-3.295 1.123-2.166 1.8-3.474 2.043-4.834.83-4.647-1.007-5.958-2.222-6.825a.943.943 0 0 0-.2-.114 1.503 1.503 0 0 0-.164.436c-.411 1.722-6.667 13.085-8.575 16.527-.134.24-.331.44-.57.576l-8.998 5.12v20.81l5.369 2.508z" fill="#040000"/><path fill="#bfbebe" d="M11.38 76.379h18.794v25.679H13.983z"/><path d="M30.174 103.558h-16.19a1.5 1.5 0 0 1-1.492-1.349L9.888 76.531a1.5 1.5 0 0 1 1.492-1.651h18.793a1.5 1.5 0 0 1 1.5 1.5v25.679a1.499 1.499 0 0 1-1.499 1.499zm-14.835-3h13.335V77.879H13.04l2.299 22.679zM107.445 80H77.321a1.5 1.5 0 1 1 0-3h28.624V36.174H46.652v12.827a1.5 1.5 0 1 1-3 0V34.674a1.5 1.5 0 0 1 1.5-1.5h62.292a1.5 1.5 0 0 1 1.5 1.5V78.5a1.5 1.5 0 0 1-1.499 1.5z" fill="#040000"/><path d="M107.445 43.662H45.152a1.5 1.5 0 1 1 0-3h62.292a1.5 1.5 0 0 1 .001 3z" fill="#040000"/><g fill="#d65540"><circle cx="76.299" cy="59.152" r="11.242"/><path d="M76.299 71.894c-7.026 0-12.742-5.716-12.742-12.742S69.273 46.41 76.299 46.41s12.742 5.716 12.742 12.742-5.716 12.742-12.742 12.742zm0-22.484c-5.372 0-9.742 4.37-9.742 9.742s4.37 9.742 9.742 9.742 9.742-4.37 9.742-9.742-4.37-9.742-9.742-9.742z"/></g><path fill="#fff" d="M73.116 54.297l8.41 4.855-8.41 4.855z"/><g fill="#d65540"><path d="M74.854 18.157V4.066M74.853 19.657a1.5 1.5 0 0 1-1.5-1.5V4.067a1.5 1.5 0 1 1 3 0v14.09a1.5 1.5 0 0 1-1.5 1.5z"/></g><g fill="#d65540"><path d="M27.298 60.589h-15.32M27.298 62.089h-15.32a1.5 1.5 0 1 1 0-3h15.32a1.5 1.5 0 1 1 0 3z"/></g><g fill="#d65540"><path d="M121.433 58.929h19.187M140.62 60.429h-19.187a1.5 1.5 0 1 1 0-3h19.187a1.5 1.5 0 1 1 0 3z"/></g><g fill="#d65540"><path d="M118.435 24.752l13.041-13.041M118.435 26.252a1.5 1.5 0 0 1-1.061-2.56l13.041-13.041a1.5 1.5 0 1 1 2.121 2.121l-13.041 13.041a1.491 1.491 0 0 1-1.06.439z"/></g><g fill="#d65540"><path d="M33.818 24.752L20.777 11.711M33.818 26.252c-.384 0-.768-.146-1.061-.439l-13.04-13.041a1.5 1.5 0 1 1 2.121-2.121l13.041 13.041a1.5 1.5 0 0 1-1.061 2.56z"/></g></svg>