<svg id="レイヤー_1" xmlns="http://www.w3.org/2000/svg" viewBox="0 0 103 103"><path d="M51.5 0C23.103 0 0 23.103 0 51.5S23.103 103 51.5 103 103 79.897 103 51.5 79.897 0 51.5 0zm0 100c-15.632 0-29.552-7.441-38.427-18.959l20.219-25.089 21.186 14.704a1.5 1.5 0 0 0 2.067-.349l25.677-35.21 2.393 14.676a1.5 1.5 0 1 0 2.961-.483l-2.98-18.274a1.5 1.5 0 0 0-1.722-1.239L64.6 32.758a1.5 1.5 0 0 0-1.239 1.722 1.498 1.498 0 0 0 1.722 1.239l14.726-2.402-24.823 34.04-21.131-14.666a1.5 1.5 0 0 0-2.023.291L11.247 78.525A48.221 48.221 0 0 1 3 51.5C3 24.757 24.757 3 51.5 3S100 24.757 100 51.5 78.243 100 51.5 100z" fill="#fff"/></svg>