<svg id="レイヤー_1" xmlns="http://www.w3.org/2000/svg" viewBox="0 0 103 103"><g fill="#fff"><path d="M51.5-.022C23.091-.022-.022 23.091-.022 51.5s23.113 51.522 51.522 51.522 51.522-23.113 51.522-51.522S79.909-.022 51.5-.022zm0 100.044c-26.756 0-48.522-21.767-48.522-48.522S24.744 2.978 51.5 2.978s48.522 21.767 48.522 48.522-21.766 48.522-48.522 48.522z"/><path d="M92.637 46.548L67.146 21.057a1.5 1.5 0 0 0-2.121 0L54.948 31.133c-.065.065-.096.147-.146.22L51.5 34.655l-3.565-3.565c-.009-.009-.021-.011-.03-.02-.031-.038-.044-.084-.079-.12L37.749 20.873a1.5 1.5 0 0 0-2.122 0l-25.49 25.492a1.5 1.5 0 0 0 0 2.121l10.076 10.076c.293.293.677.439 1.061.439s.768-.146 1.061-.439l1.326-1.326 2.63 2.63-.131.131a7.79 7.79 0 0 0-2.292 5.55c0 2.102.814 4.073 2.292 5.551l14.109 14.109a7.794 7.794 0 0 0 5.551 2.291 7.794 7.794 0 0 0 5.551-2.292l.13-.13.131.131a7.823 7.823 0 0 0 5.55 2.295c2.01 0 4.021-.765 5.551-2.295l14.109-14.109c3.061-3.062 3.06-8.041 0-11.101l-.223-.223 2.488-2.362 1.334 1.334c.293.293.677.439 1.061.439s.768-.146 1.061-.439L92.639 48.67a1.502 1.502 0 0 0-.002-2.122zm-79.319.877l23.37-23.37 7.955 7.956-23.37 23.369-7.955-7.955zm32.501 37.072a4.818 4.818 0 0 1-3.43-1.412L28.28 68.976a4.815 4.815 0 0 1-1.413-3.43c0-1.3.502-2.518 1.413-3.429l4.044-4.044a4.815 4.815 0 0 1 3.43-1.413c1.3 0 2.518.502 3.429 1.413l14.109 14.108a4.856 4.856 0 0 1 0 6.859l-4.044 4.044a4.815 4.815 0 0 1-3.429 1.413zm7.933-1.413l-.13-.13 1.792-1.792a7.825 7.825 0 0 0 1.342-1.802l4.013 3.568-.157.157a4.856 4.856 0 0 1-6.86-.001zM74.72 68.976l-.222.222-10.542-10.542a1.5 1.5 0 1 0-2.121 2.121l10.542 10.541-3.651 3.651-10.541-10.54a1.5 1.5 0 1 0-2.121 2.121l10.541 10.541-3.712 3.712-5.211-4.633a7.828 7.828 0 0 0-2.269-6.109L41.304 55.952c-1.477-1.478-3.448-2.292-5.55-2.292s-4.073.814-5.551 2.292l-1.792 1.792-2.63-2.63L46.75 34.147l2.629 2.629-6.782 6.781c-1.594 1.594-2.501 3.704-2.49 5.79.009 1.802.702 3.469 1.941 4.684 1.296 1.296 3.199 1.975 5.168 1.861 1.979-.111 3.864-.968 5.291-2.396l6.893-6.7 15.32 15.32a4.859 4.859 0 0 1 0 6.86zm-.192-11.356L59.499 42.516 50.4 51.361c-.92.921-2.111 1.466-3.354 1.536-1.133.065-2.186-.296-2.889-.998-.863-.847-1.049-1.863-1.052-2.567-.007-1.29.581-2.622 1.611-3.653l11.328-11.327 20.94 20.938-2.456 2.33zm6.972-2.056l-.929-.929a1.507 1.507 0 0 0-.268-.428 1.494 1.494 0 0 0-.507-.348L58.13 32.194l7.955-7.955 23.37 23.37-7.955 7.955z"/></g></svg>