<svg id="Layer_1" xmlns="http://www.w3.org/2000/svg" viewBox="0 0 72.031 94.709"><path fill="#FFF" stroke="#CA2027" stroke-width="4" stroke-linecap="round" stroke-linejoin="round" stroke-miterlimit="10" d="M70.031 19.008H53.024V2H2v90.709h68.031z"/><path fill="#CA2027" d="M18.504 36.496h51.024v28.346H18.504z"/><g fill="#FFF"><path d="M31.785 43.311c.943 0 1.759.111 2.446.333.687.222 1.252.531 1.696.926.443.396.771.866.983 1.411.212.545.318 1.137.318 1.777a5.04 5.04 0 0 1-.333 1.862c-.222.564-.557 1.048-1.007 1.454s-1.017.721-1.701.945-1.485.337-2.403.337H29.98v4.741h-2.85V43.311h4.655zm0 6.86c.893 0 1.547-.215 1.961-.646.415-.431.623-1.02.623-1.767 0-.342-.052-.654-.157-.936a1.865 1.865 0 0 0-.475-.722c-.212-.2-.48-.353-.803-.461a3.669 3.669 0 0 0-1.149-.162H29.98v4.693h1.805zM51.402 50.199c0 1.007-.17 1.933-.508 2.779a6.316 6.316 0 0 1-1.435 2.18 6.563 6.563 0 0 1-2.228 1.425c-.868.342-1.83.513-2.888.513h-5.301V43.311h5.301c1.058 0 2.02.171 2.888.513s1.61.819 2.228 1.43a6.387 6.387 0 0 1 1.435 2.18c.339.843.508 1.764.508 2.765zm-2.926 0c0-.722-.095-1.371-.285-1.948-.19-.576-.462-1.064-.817-1.463s-.787-.706-1.297-.921-1.087-.323-1.733-.323h-2.432v9.319h2.432c.646 0 1.224-.106 1.733-.318.51-.212.942-.519 1.297-.921s.627-.892.817-1.468c.19-.576.285-1.229.285-1.957zM56.37 45.544v3.809h4.959v2.242H56.37v5.5h-2.869V43.311h8.778v2.233H56.37z"/></g><path fill="#FFF" stroke="#CA2027" stroke-width="4" stroke-linecap="round" stroke-linejoin="round" stroke-miterlimit="10" d="M70.031 19.008H53.024V2z"/></svg>