<svg id="レイヤー_1" xmlns="http://www.w3.org/2000/svg" viewBox="0 0 152 108"><path fill="#fff" d="M1.5 1.519h149V106.48H1.5z"/><path d="M150.5 107.98H1.5a1.5 1.5 0 0 1-1.5-1.5V1.52A1.5 1.5 0 0 1 1.5.02h149a1.5 1.5 0 0 1 1.5 1.5v104.96a1.5 1.5 0 0 1-1.5 1.5zm-147.5-3h146V3.02H3v101.96z" fill="#040000"/><path fill="#c8c8c8" d="M1.5 1.739h149v13.606H1.5z"/><path d="M150.5 16.846H1.5a1.5 1.5 0 0 1-1.5-1.5V1.739a1.5 1.5 0 0 1 1.5-1.5h149a1.5 1.5 0 0 1 1.5 1.5v13.606a1.5 1.5 0 0 1-1.5 1.501zm-147.5-3h146V3.239H3v10.607z" fill="#040000"/><path fill="#bfbebe" d="M3.183 24.241h145.678v54.38H3.183z"/><path d="M52.656 74.471a1.51 1.51 0 0 1-.371-.047l-33.777-8.62a1.5 1.5 0 0 1-1.129-1.453V39.72a1.502 1.502 0 0 1 1.872-1.454l33.777 8.62a1.5 1.5 0 0 1 1.129 1.453V72.97a1.502 1.502 0 0 1-1.501 1.501zM20.379 63.186l30.777 7.854V49.505L20.379 41.65v21.536z" fill="#040000"/><path d="M52.656 74.471a1.5 1.5 0 0 1-1.5-1.5V48.34c0-.568.321-1.087.829-1.342l17.233-8.62a1.501 1.501 0 0 1 2.17 1.341V64.35c0 .568-.321 1.087-.829 1.342l-17.233 8.62a1.493 1.493 0 0 1-.67.159zm1.5-25.204v21.276l14.233-7.119V42.147l-14.233 7.12z" fill="#040000"/><path d="M52.656 49.84a1.51 1.51 0 0 1-.371-.047l-33.777-8.62a1.5 1.5 0 1 1-.3-2.795l17.233-8.619c.322-.16.691-.201 1.042-.111l33.777 8.619a1.5 1.5 0 0 1 .3 2.795l-17.233 8.62c-.21.104-.44.158-.671.158zM23.149 39.262l29.336 7.486 13.135-6.569-29.337-7.486-13.134 6.569zM140.323 35.477h-60.49a1.5 1.5 0 1 1 0-3h60.489a1.5 1.5 0 0 1 .001 3zM108.5 43.81H79.833a1.5 1.5 0 1 1 0-3H108.5a1.5 1.5 0 1 1 0 3zM131.833 57.846h-52a1.5 1.5 0 1 1 0-3h52a1.5 1.5 0 1 1 0 3zM131.833 66.158h-52a1.5 1.5 0 1 1 0-3h52a1.5 1.5 0 1 1 0 3zM131.833 74.471h-52a1.5 1.5 0 1 1 0-3h52a1.5 1.5 0 1 1 0 3z" fill="#040000"/><g><path fill="#fff" d="M78.589 77.12h35.279V25.795H40.915V77.12z"/><path d="M113.868 78.62H40.915a1.5 1.5 0 0 1-1.5-1.5V25.795a1.5 1.5 0 0 1 1.5-1.5h72.953a1.5 1.5 0 0 1 1.5 1.5V77.12a1.5 1.5 0 0 1-1.5 1.5zm-71.453-3h69.953V27.295H42.415V75.62z" fill="#040000"/><path fill="#fff" d="M40.915 26.394h72.953v7.583H40.915z"/><path d="M113.868 35.477H40.915a1.5 1.5 0 0 1-1.5-1.5v-7.583a1.5 1.5 0 0 1 1.5-1.5h72.953a1.5 1.5 0 0 1 1.5 1.5v7.583a1.5 1.5 0 0 1-1.5 1.5zm-71.453-3h69.953v-4.583H42.415v4.583z" fill="#040000"/><g fill="#d65540"><circle cx="77.391" cy="54.461" r="13.166"/><path d="M77.392 69.127c-8.087 0-14.666-6.579-14.666-14.666s6.579-14.666 14.666-14.666 14.666 6.579 14.666 14.666-6.579 14.666-14.666 14.666zm0-26.332c-6.433 0-11.666 5.233-11.666 11.666s5.233 11.666 11.666 11.666 11.666-5.233 11.666-11.666-5.234-11.666-11.666-11.666z"/></g><path fill="#fff" d="M73.664 48.775l9.849 5.686-9.849 5.686z"/></g></svg>