<svg id="レイヤー_1" xmlns="http://www.w3.org/2000/svg" viewBox="0 0 152 108"><path d="M94.029 57.347v23.527c0 5.5-4.5 10-10 10H45.747c-5.5 0-10-4.5-10-10V28.186c0-5.5 4.5-10 10-10H84.03c5.5 0 10 4.5 10 10v29.161z" fill="#fff"/><path d="M84.029 92.374H45.747c-6.341 0-11.5-5.159-11.5-11.5V28.186c0-6.341 5.159-11.5 11.5-11.5H84.03c6.341 0 11.5 5.159 11.5 11.5v52.688c-.001 6.341-5.159 11.5-11.501 11.5zM45.747 19.686c-4.687 0-8.5 3.813-8.5 8.5v52.688c0 4.687 3.813 8.5 8.5 8.5H84.03c4.687 0 8.5-3.813 8.5-8.5V28.187c0-4.688-3.813-8.501-8.5-8.501H45.747z" fill="#c8c8c8"/><path d="M84.029 92.374H45.747c-6.341 0-11.5-5.159-11.5-11.5V28.186c0-6.341 5.159-11.5 11.5-11.5H84.03c6.341 0 11.5 5.159 11.5 11.5v10.001a1.5 1.5 0 1 1-3 0V28.186c0-4.687-3.813-8.5-8.5-8.5H45.747c-4.687 0-8.5 3.813-8.5 8.5v52.688c0 4.687 3.813 8.5 8.5 8.5H84.03c4.687 0 8.5-3.813 8.5-8.5V67.347a1.5 1.5 0 1 1 3 0v13.527c-.001 6.341-5.159 11.5-11.501 11.5z" fill="#040000"/><path d="M85.755 32.109H44.638a1.5 1.5 0 1 1 0-3h41.117a1.5 1.5 0 1 1 0 3zM85.755 43.705H44.638a1.5 1.5 0 1 1 0-3h41.117a1.5 1.5 0 1 1 0 3zM76.964 55.301H44.638a1.5 1.5 0 1 1 0-3h32.326a1.5 1.5 0 1 1 0 3zM71.012 66.896H44.638a1.5 1.5 0 1 1 0-3h26.375a1.5 1.5 0 1 1-.001 3zM64.888 78.492h-20.25a1.5 1.5 0 1 1 0-3h20.25a1.5 1.5 0 1 1 0 3z" fill="#040000"/><path transform="rotate(45.001 96.21 50.547)" fill="#d65540" d="M90.237 30.072h11.942v40.951H90.237z"/><path d="M85.952 70.748c-.384 0-.768-.146-1.061-.439l-8.444-8.443a1.5 1.5 0 0 1 0-2.122l28.957-28.957c.562-.562 1.559-.562 2.121 0l8.444 8.444a1.5 1.5 0 0 1 0 2.122L87.012 70.309a1.493 1.493 0 0 1-1.06.439zm-6.322-9.943l6.322 6.322 26.836-26.835-6.323-6.323L79.63 60.805z" fill="#040000"/><g><path fill="#fff" d="M85.952 69.248l-16.407 7.964 7.963-16.408z"/><path d="M69.545 78.712a1.5 1.5 0 0 1-1.35-2.155l7.963-16.407a1.5 1.5 0 0 1 2.411-.405l8.444 8.443a1.499 1.499 0 0 1-.406 2.411L70.2 78.563c-.209.1-.433.149-.655.149zm8.392-15.357l-5.153 10.616 10.617-5.153-5.464-5.463z" fill="#040000"/></g><g><path d="M114.899 40.469c2.352-2.352 1.354-5.168-.998-7.52-2.352-2.352-5.168-3.35-7.52-.998l8.518 8.518z" fill="#fff"/><path d="M114.899 41.97c-.398 0-.779-.158-1.061-.439l-8.518-8.519a1.5 1.5 0 0 1 0-2.121c1.166-1.166 2.56-1.781 4.033-1.781 1.85 0 3.789.961 5.608 2.779 3.331 3.331 3.704 6.936.998 9.642a1.499 1.499 0 0 1-1.06.439zm-6.156-9.778l5.9 5.901c.324-1.19-.278-2.559-1.804-4.084-1.474-1.474-2.919-2.143-4.096-1.817z" fill="#060001"/></g><g><path fill="#c8c8c8" d="M109.666 45.534l-8.444-8.444 5.149-5.149 8.528 8.528z"/><path d="M109.666 47.034c-.384 0-.768-.146-1.061-.439l-8.444-8.444a1.5 1.5 0 0 1 0-2.122l5.149-5.148a1.5 1.5 0 0 1 2.121 0l8.528 8.528a1.5 1.5 0 0 1-.018 2.138l-5.232 5.064c-.29.283-.667.423-1.043.423zm-6.323-9.944l6.34 6.34 3.077-2.978-6.389-6.39-3.028 3.028z" fill="#040000"/></g><path transform="rotate(45.009 73.116 73.561)" fill="#040000" d="M71.4 72.067h3.434v3H71.4z"/></svg>