<svg xmlns="http://www.w3.org/2000/svg" viewBox="0 0 40 40"><g id="レイヤー_6"><path id="Blue_1_" d="M37.792 40A2.208 2.208 0 0 0 40 37.792V2.208C40 .988 39.011 0 37.792 0H2.208C.988 0 0 .988 0 2.208v35.585C0 39.012.988 40 2.208 40h35.584z" fill="#58a3da"/><path d="M34.821 10.633a11.42 11.42 0 0 1-3.29.902 5.744 5.744 0 0 0 2.519-3.169 11.488 11.488 0 0 1-3.637 1.39 5.723 5.723 0 0 0-4.181-1.809 5.728 5.728 0 0 0-5.728 5.728c0 .449.051.886.148 1.305A16.26 16.26 0 0 1 8.846 8.995a5.702 5.702 0 0 0-.775 2.88 5.727 5.727 0 0 0 2.548 4.768 5.705 5.705 0 0 1-2.594-.716v.072a5.732 5.732 0 0 0 4.595 5.617 5.736 5.736 0 0 1-2.587.098 5.733 5.733 0 0 0 5.351 3.978 11.494 11.494 0 0 1-7.114 2.452c-.462 0-.918-.027-1.366-.08a16.215 16.215 0 0 0 8.78 2.573c10.536 0 16.297-8.728 16.297-16.297 0-.248-.006-.495-.017-.741a11.66 11.66 0 0 0 2.857-2.966z" fill="#fff"/></g></svg>