<svg id="レイヤー_1" xmlns="http://www.w3.org/2000/svg" viewBox="0 0 103 103"><path d="M51.5 102.917C23.148 102.917.083 79.852.083 51.5S23.148.083 51.5.083s51.417 23.065 51.417 51.417-23.065 51.417-51.417 51.417zm0-100C24.711 2.917 2.917 24.711 2.917 51.5s21.794 48.583 48.583 48.583 48.583-21.794 48.583-48.583S78.289 2.917 51.5 2.917z" fill="#fff"/><path d="M24.695 80.844a1.502 1.502 0 0 1-1.501-1.5V65.777c-3.626-.565-6.409-3.709-6.409-7.491V40.038c0-4.181 3.401-7.582 7.582-7.582h3.093v3h-3.093a4.588 4.588 0 0 0-4.582 4.582v18.248a4.588 4.588 0 0 0 4.582 4.582h.327a1.5 1.5 0 0 1 1.5 1.5v8.045l3.935-8.665a1.5 1.5 0 0 1 1.366-.88h12.371v3H32.46l-6.4 14.096a1.5 1.5 0 0 1-1.365.88z" fill="#fff"/><path d="M49.54 71.542a8.186 8.186 0 0 1-7.811-5.706 8.146 8.146 0 0 1-.39-2.495v-2.297h3v2.297c0 .539.083 1.069.246 1.578a5.194 5.194 0 0 0 4.954 3.623v3zM76.199 81.331a1.5 1.5 0 0 1-1.191-.588l-7.042-9.201H53.824v-3h14.883c.467 0 .907.218 1.191.588l4.801 6.273v-5.361a1.5 1.5 0 0 1 1.5-1.5h.142c2.867 0 5.2-2.333 5.2-5.201V43.24c0-2.867-2.333-5.2-5.2-5.2h-1.938v-3h1.938c4.521 0 8.2 3.679 8.2 8.2v20.101c0 4.06-2.964 7.439-6.842 8.089v8.401a1.5 1.5 0 0 1-1.5 1.5z" fill="#fff"/><path d="M51.501 81.331l-.055-.001a1.5 1.5 0 0 1-1.42-1.218l-3.348-17.568H35.864c-5.138 0-9.318-4.18-9.318-9.317V28.461c0-5.138 4.181-9.317 9.318-9.317h31.272c5.138 0 9.318 4.18 9.318 9.317v24.766c0 5.138-4.181 9.317-9.318 9.317h-9.489L52.95 80.217a1.5 1.5 0 0 1-1.449 1.114zM35.864 22.144a6.325 6.325 0 0 0-6.318 6.317v24.766a6.325 6.325 0 0 0 6.318 6.317H47.92c.72 0 1.339.512 1.474 1.219l2.348 12.321 3.303-12.426a1.5 1.5 0 0 1 1.449-1.114h10.643a6.325 6.325 0 0 0 6.318-6.317V28.461a6.325 6.325 0 0 0-6.318-6.317H35.864z" fill="#fff"/><path d="M60.599 53.613H49.757c-.22 0-.436-.048-.635-.141l-3.212-1.5a1.5 1.5 0 0 1-.865-1.359V39.491c0-.513.263-.991.695-1.266l3.97-2.522c1.755-3.177 3.623-6.687 3.824-7.279.262-1.104 1.302-1.885 2.572-1.885.573 0 1.13.171 1.567.482.086.062.188.127.3.199.99.638 3.309 2.132 2.73 5.368-.148.832-.474 1.552-.925 2.438l3.35.02h.002c.222 0 .319.007.4.013 1.989.002 3.506 1.487 3.506 3.383a3.445 3.445 0 0 1-1.176 2.594c.184.382.312.821.312 1.312a3.449 3.449 0 0 1-1.179 2.597c.185.386.315.827.315 1.309a3.451 3.451 0 0 1-1.441 2.805c.107.342.183.716.183 1.102a3.454 3.454 0 0 1-3.451 3.452zm-10.509-3h10.509c.25 0 .453-.203.453-.453-.001-.153-.134-.477-.396-.96-.176-.327-.543-1.006-.095-1.758a1.516 1.516 0 0 1 1.296-.735c.25 0 .453-.203.453-.453-.042-.14-.405-.542-.525-.675-.236-.262-.865-.958-.456-1.878.24-.541.799-.899 1.392-.899.25 0 .453-.203.453-.453-.038-.132-.372-.48-.497-.612-.253-.264-.923-.965-.518-1.913.236-.553.824-.928 1.425-.928.25 0 .453-.203.453-.453 0-.396-.482-.376-.704-.39a2.696 2.696 0 0 0-.213-.006l-5.788-.034a1.502 1.502 0 0 1-1.34-2.157c.311-.637.588-1.172.83-1.64.518-.998.83-1.601.929-2.154.211-1.184-.389-1.666-1.402-2.319l-.096-.062c-.607 1.427-2.505 4.925-4.104 7.811a1.495 1.495 0 0 1-.507.538l-3.597 2.286v9.343l2.045.954z" fill="#fff"/><path d="M46.696 52.691h-7.954a1.5 1.5 0 0 1-1.492-1.349l-1.28-12.615a1.5 1.5 0 0 1 1.492-1.651h9.233a1.5 1.5 0 0 1 1.5 1.5v12.616a1.498 1.498 0 0 1-1.499 1.499zm-6.599-3h5.099v-9.616h-6.073l.974 9.616z" fill="#fff"/></svg>